<?xml version="1.0" standalone="no"?>
<!DOCTYPE svg PUBLIC "-//W3C//DTD SVG 20010904//EN" "http://www.w3.org/TR/2001/REC-SVG-20010904/DTD/svg10.dtd">
<svg version="1.0" xmlns="http://www.w3.org/2000/svg" width="302.000000pt" height="302.000000pt" viewBox="0 0 302.000000 302.000000" preserveAspectRatio="xMidYMid meet">
<metadata>
Created by potrace 1.11, written by Peter Selinger 2001-2013
</metadata>
<g transform="translate(0.000000,302.000000) scale(0.100000,-0.100000)"
fill="#000000" stroke="none">
<path d="M2545 2603 c-60 -81 -113 -152 -118 -158 -4 -5 -30 -41 -58 -79 l-51
-68 22 -45 23 -45 26 28 c15 16 51 56 81 89 29 33 86 96 125 140 40 44 84 94
98 111 l27 31 -23 49 c-13 27 -27 59 -33 72 -8 21 -18 10 -119 -125z"/>
<path d="M1818 2638 c-8 -13 -23 -53 -33 -90 l-18 -67 -141 1 c-78 1 -197 -2
-266 -6 l-125 -7 -27 59 c-28 59 -68 98 -93 88 -20 -7 -31 -89 -34 -257 -1
-44 -3 -47 -43 -65 -83 -37 -194 -118 -279 -203 -126 -127 -203 -249 -260
-416 -27 -80 -27 -80 -95 -123 -117 -72 -394 -255 -392 -257 2 -1 75 -5 163
-9 88 -3 173 -8 189 -10 46 -7 86 -27 86 -45 2 -87 50 -253 106 -364 108 -219
270 -381 489 -488 90 -44 291 -107 303 -94 3 2 -8 53 -23 112 -15 59 -30 121
-32 137 l-5 29 34 -21 c18 -11 61 -34 96 -52 34 -17 63 -35 63 -40 1 -6 3 -19
4 -30 1 -11 3 -50 4 -86 l1 -67 93 6 c123 9 137 13 138 46 0 14 2 33 4 41 8
40 34 189 39 223 4 26 25 61 67 115 34 42 59 68 56 57 -3 -11 -9 -40 -12 -65
-19 -138 -68 -314 -100 -364 -10 -14 -15 -26 -12 -26 39 0 310 116 327 140 3
4 25 20 50 35 64 41 198 179 253 262 106 160 171 348 182 528 7 101 15 112 89
135 48 15 166 20 216 9 19 -4 37 -6 39 -3 15 15 -322 309 -405 352 -12 7 -40
44 -62 84 -114 208 -300 382 -501 469 -28 12 -52 24 -52 28 -1 3 -3 20 -5 36
-2 17 -5 46 -8 65 -3 19 -10 69 -16 110 -17 118 -24 131 -52 88z m489 -735
c48 -58 124 -167 146 -208 13 -25 13 -35 3 -60 -33 -78 -79 -70 -84 16 -5 90
-86 208 -135 195 -59 -14 -274 -175 -318 -238 -24 -33 -24 -33 -24 -343 l0
-310 -105 -28 c-230 -60 -497 -126 -525 -129 l-30 -3 -14 80 c-7 44 -40 215
-73 380 -33 165 -61 307 -62 315 -4 23 -229 102 -290 102 -114 0 -198 -125
-162 -243 7 -25 5 -27 -26 -30 -50 -6 -67 0 -74 26 -7 28 19 121 48 173 63
113 99 170 121 190 24 23 29 24 149 17 l123 -6 30 -37 c102 -126 201 -206 339
-276 81 -41 84 -43 66 -59 -11 -9 -22 -12 -25 -7 -9 15 -46 12 -65 -5 -22 -20
-15 -60 13 -72 27 -12 33 -75 10 -110 -17 -26 -17 -26 5 -14 19 10 26 8 54
-18 l32 -30 -13 -62 c-14 -68 -11 -80 11 -47 9 13 25 34 37 47 11 13 21 27 21
30 0 9 89 32 119 31 35 0 52 18 44 48 -4 18 -1 29 12 38 10 8 14 18 9 26 -21
33 -10 94 23 126 20 20 10 25 -21 11 -32 -15 -79 5 -72 30 2 9 7 27 10 41 4
15 30 43 66 69 80 59 272 258 293 304 15 30 26 38 71 51 77 23 125 32 177 35
44 2 48 0 86 -46z m-396 25 c4 -47 -8 -67 -75 -133 -39 -39 -102 -104 -139
-145 -38 -41 -66 -67 -63 -57 3 9 4 17 2 17 -1 0 -27 -30 -56 -66 -80 -98 -82
-99 -208 -7 -124 89 -188 140 -254 202 -45 42 -48 47 -48 96 l0 52 69 7 c38 4
80 9 93 11 37 6 135 14 248 21 58 4 106 7 107 8 1 1 75 3 163 5 127 2 160 0
161 -11z m-331 -458 c0 -5 -5 -10 -11 -10 -5 0 -7 5 -4 10 3 6 8 10 11 10 2 0
4 -4 4 -10z"/>
<path d="M1478 1889 c-26 -15 -22 -42 10 -60 22 -12 32 -13 44 -5 18 14 42 56
34 63 -10 11 -72 12 -88 2z"/>
<path d="M1601 1766 c-31 -33 -56 -37 -80 -15 -20 19 -21 19 -41 -1 -29 -29
-80 -26 -110 5 -43 46 -44 38 -4 -80 31 -91 110 -139 155 -94 18 18 21 29 16
68 -3 25 -8 53 -12 62 -4 12 1 16 24 16 32 0 56 15 72 45 13 25 7 23 -20 -6z"/>
<path d="M168 2597 c-20 -23 -48 -54 -62 -69 l-25 -26 231 -166 232 -165 23
37 c12 20 23 43 23 51 0 12 -344 355 -374 373 -7 4 -27 -11 -48 -35z"/>
<path d="M2719 2277 c-46 -40 -94 -82 -106 -93 -26 -21 -29 -56 -10 -116 l12
-38 105 80 c57 44 108 81 114 83 10 3 -9 123 -23 146 -6 9 -32 -8 -92 -62z"/>
<path d="M97 2178 c-8 -13 -31 -49 -50 -80 l-36 -57 95 -45 c53 -25 102 -47
109 -48 7 -2 32 25 54 59 l40 63 -87 58 c-48 32 -92 62 -99 66 -7 4 -18 -3
-26 -16z"/>
<path d="M2548 732 c-26 -20 -44 -39 -40 -43 26 -24 245 -128 255 -122 42 26
106 79 104 87 -3 8 -253 117 -266 115 -3 0 -27 -17 -53 -37z"/>
<path d="M483 488 l-93 -69 57 -74 57 -74 51 47 c27 26 65 64 83 84 l34 38
-36 48 c-20 27 -41 54 -48 59 -9 7 -39 -9 -105 -59z"/>
</g>
</svg>
