<svg version="1.0" xmlns="http://www.w3.org/2000/svg" width="402.667" height="402.667" viewBox="0 0 302 302"><path d="M254.5 41.7c-6 8.1-11.3 15.2-11.8 15.8-.4.5-3 4.1-5.8 7.9l-5.1 6.8 2.2 4.5 2.3 4.5 2.6-2.8c1.5-1.6 5.1-5.6 8.1-8.9 2.9-3.3 8.6-9.6 12.5-14 4-4.4 8.4-9.4 9.8-11.1l2.7-3.1-2.3-4.9c-1.3-2.7-2.7-5.9-3.3-7.2-.8-2.1-1.8-1-11.9 12.5zm-72.7-3.5c-.8 1.3-2.3 5.3-3.3 9l-1.8 6.7-14.1-.1c-7.8-.1-19.7.2-26.6.6l-12.5.7-2.7-5.9c-2.8-5.9-6.8-9.8-9.3-8.8-2 .7-3.1 8.9-3.4 25.7-.1 4.4-.3 4.7-4.3 6.5-8.3 3.7-19.4 11.8-27.9 20.3-12.6 12.7-20.3 24.9-26 41.6-2.7 8-2.7 8-9.5 12.3C28.7 154 1 172.3 1.2 172.5c.2.1 7.5.5 16.3.9 8.8.3 17.3.8 18.9 1 4.6.7 8.6 2.7 8.6 4.5.2 8.7 5 25.3 10.6 36.4 10.8 21.9 27 38.1 48.9 48.8 9 4.4 29.1 10.7 30.3 9.4.3-.2-.8-5.3-2.3-11.2-1.5-5.9-3-12.1-3.2-13.7l-.5-2.9 3.4 2.1c1.8 1.1 6.1 3.4 9.6 5.2 3.4 1.7 6.3 3.5 6.3 4 .1.6.3 1.9.4 3 .1 1.1.3 5 .4 8.6l.1 6.7 9.3-.6c12.3-.9 13.7-1.3 13.8-4.6 0-1.4.2-3.3.4-4.1.8-4 3.4-18.9 3.9-22.3.4-2.6 2.5-6.1 6.7-11.5 3.4-4.2 5.9-6.8 5.6-5.7-.3 1.1-.9 4-1.2 6.5-1.9 13.8-6.8 31.4-10 36.4-1 1.4-1.5 2.6-1.2 2.6 3.9 0 31-11.6 32.7-14 .3-.4 2.5-2 5-3.5 6.4-4.1 19.8-17.9 25.3-26.2 10.6-16 17.1-34.8 18.2-52.8.7-10.1 1.5-11.2 8.9-13.5 4.8-1.5 16.6-2 21.6-.9 1.9.4 3.7.6 3.9.3 1.5-1.5-32.2-30.9-40.5-35.2-1.2-.7-4-4.4-6.2-8.4-11.4-20.8-30-38.2-50.1-46.9-2.8-1.2-5.2-2.4-5.2-2.8-.1-.3-.3-2-.5-3.6-.2-1.7-.5-4.6-.8-6.5-.3-1.9-1-6.9-1.6-11-1.7-11.8-2.4-13.1-5.2-8.8zm48.9 73.5c4.8 5.8 12.4 16.7 14.6 20.8 1.3 2.5 1.3 3.5.3 6-3.3 7.8-7.9 7-8.4-1.6-.5-9-8.6-20.8-13.5-19.5-5.9 1.4-27.4 17.5-31.8 23.8-2.4 3.3-2.4 3.3-2.4 34.3v31l-10.5 2.8c-23 6-49.7 12.6-52.5 12.9l-3 .3-1.4-8c-.7-4.4-4-21.5-7.3-38s-6.1-30.7-6.2-31.5c-.4-2.3-22.9-10.2-29-10.2-11.4 0-19.8 12.5-16.2 24.3.7 2.5.5 2.7-2.6 3-5 .6-6.7 0-7.4-2.6-.7-2.8 1.9-12.1 4.8-17.3 6.3-11.3 9.9-17 12.1-19 2.4-2.3 2.9-2.4 14.9-1.7l12.3.6 3 3.7c10.2 12.6 20.1 20.6 33.9 27.6 8.1 4.1 8.4 4.3 6.6 5.9-1.1.9-2.2 1.2-2.5.7-.9-1.5-4.6-1.2-6.5.5-2.2 2-1.5 6 1.3 7.2 2.7 1.2 3.3 7.5 1 11-1.7 2.6-1.7 2.6.5 1.4 1.9-1 2.6-.8 5.4 1.8l3.2 3-1.3 6.2c-1.4 6.8-1.1 8 1.1 4.7.9-1.3 2.5-3.4 3.7-4.7 1.1-1.3 2.1-2.7 2.1-3 0-.9 8.9-3.2 11.9-3.1 3.5 0 5.2-1.8 4.4-4.8-.4-1.8-.1-2.9 1.2-3.8 1-.8 1.4-1.8.9-2.6-2.1-3.3-1-9.4 2.3-12.6 2-2 1-2.5-2.1-1.1-3.2 1.5-7.9-.5-7.2-3 .2-.9.7-2.7 1-4.1.4-1.5 3-4.3 6.6-6.9 8-5.9 27.2-25.8 29.3-30.4 1.5-3 2.6-3.8 7.1-5.1 7.7-2.3 12.5-3.2 17.7-3.5 4.4-.2 4.8 0 8.6 4.6zm-39.6-2.5c.4 4.7-.8 6.7-7.5 13.3-3.9 3.9-10.2 10.4-13.9 14.5-3.8 4.1-6.6 6.7-6.3 5.7.3-.9.4-1.7.2-1.7-.1 0-2.7 3-5.6 6.6-8 9.8-8.2 9.9-20.8.7-12.4-8.9-18.8-14-25.4-20.2-4.5-4.2-4.8-4.7-4.8-9.6v-5.2l6.9-.7c3.8-.4 8-.9 9.3-1.1 3.7-.6 13.5-1.4 24.8-2.1 5.8-.4 10.6-.7 10.7-.8.1-.1 7.5-.3 16.3-.5 12.7-.2 16 0 16.1 1.1zM158 155c0 .5-.5 1-1.1 1-.5 0-.7-.5-.4-1 .3-.6.8-1 1.1-1 .2 0 .4.4.4 1z"/><path d="M147.8 113.1c-2.6 1.5-2.2 4.2 1 6 2.2 1.2 3.2 1.3 4.4.5 1.8-1.4 4.2-5.6 3.4-6.3-1-1.1-7.2-1.2-8.8-.2zm12.3 12.3c-3.1 3.3-5.6 3.7-8 1.5-2-1.9-2.1-1.9-4.1.1-2.9 2.9-8 2.6-11-.5-4.3-4.6-4.4-3.8-.4 8 3.1 9.1 11 13.9 15.5 9.4 1.8-1.8 2.1-2.9 1.6-6.8-.3-2.5-.8-5.3-1.2-6.2-.4-1.2.1-1.6 2.4-1.6 3.2 0 5.6-1.5 7.2-4.5 1.3-2.5.7-2.3-2 .6zM16.8 42.3c-2 2.3-4.8 5.4-6.2 6.9l-2.5 2.6 23.1 16.6 23.2 16.5 2.3-3.7c1.2-2 2.3-4.3 2.3-5.1 0-1.2-34.4-35.5-37.4-37.3-.7-.4-2.7 1.1-4.8 3.5zm255.1 32c-4.6 4-9.4 8.2-10.6 9.3-2.6 2.1-2.9 5.6-1 11.6l1.2 3.8 10.5-8c5.7-4.4 10.8-8.1 11.4-8.3 1-.3-.9-12.3-2.3-14.6-.6-.9-3.2.8-9.2 6.2zM9.7 84.2c-.8 1.3-3.1 4.9-5 8l-3.6 5.7 9.5 4.5c5.3 2.5 10.2 4.7 10.9 4.8.7.2 3.2-2.5 5.4-5.9l4-6.3-8.7-5.8C17.4 86 13 83 12.3 82.6c-.7-.4-1.8.3-2.6 1.6zm245.1 144.6c-2.6 2-4.4 3.9-4 4.3 2.6 2.4 24.5 12.8 25.5 12.2 4.2-2.6 10.6-7.9 10.4-8.7-.3-.8-25.3-11.7-26.6-11.5-.3 0-2.7 1.7-5.3 3.7zM48.3 253.2l-9.3 6.9 5.7 7.4 5.7 7.4 5.1-4.7c2.7-2.6 6.5-6.4 8.3-8.4l3.4-3.8-3.6-4.8c-2-2.7-4.1-5.4-4.8-5.9-.9-.7-3.9.9-10.5 5.9z"/></svg>